<svg width="21" height="20" viewBox="0 0 21 20" fill="none" xmlns="http://www.w3.org/2000/svg">
<path d="M9.88708 13.859C9.83908 13.812 9.63208 13.634 9.46208 13.469C8.39308 12.498 6.64308 9.96501 6.10908 8.63901C6.02308 8.43801 5.84208 7.92901 5.83008 7.65701C5.83008 7.39701 5.89008 7.14701 6.01208 6.91101C6.18208 6.61501 6.44908 6.37801 6.76508 6.24801C6.98508 6.16501 7.64008 6.03501 7.65208 6.03501C8.36908 5.90501 9.53508 5.83301 10.8231 5.83301C12.0511 5.83301 13.1691 5.90501 13.8981 6.01101C13.9091 6.02301 14.7241 6.15301 15.0031 6.29501C15.5131 6.55501 15.8301 7.06501 15.8301 7.61001V7.65701C15.8181 8.01101 15.5001 8.75701 15.4901 8.75701C14.9541 10.012 13.2901 12.487 12.1841 13.481C12.1841 13.481 11.9001 13.761 11.7231 13.883C11.4671 14.073 11.1521 14.167 10.8361 14.167C10.4831 14.167 10.1551 14.06 9.88708 13.859Z" fill="#5645F5"/>
</svg>
