<svg width="14" height="16" viewBox="0 0 14 16" fill="none" xmlns="http://www.w3.org/2000/svg">
<path d="M10.9333 8.50362C10.9473 7.41262 11.5503 6.40462 12.5293 5.83362C11.9093 4.99362 10.9073 4.47862 9.82626 4.44662C8.68826 4.33362 7.58626 5.09262 7.00626 5.09262C6.41526 5.09262 5.52326 4.45762 4.56226 4.47662C3.29726 4.51562 2.14726 5.18062 1.53226 6.23062C0.222264 8.38262 1.19926 11.5466 2.45426 13.2866C3.08226 14.1386 3.81626 15.0906 4.77626 15.0566C5.71626 15.0196 6.06626 14.4886 7.20026 14.4886C8.32426 14.4886 8.65326 15.0566 9.63226 15.0356C10.6413 15.0206 11.2763 14.1796 11.8823 13.3196C12.3307 12.7172 12.6779 12.0458 12.9103 11.3316C11.7133 10.8516 10.9343 9.73662 10.9333 8.50362ZM9.08326 3.30262C9.63326 2.67562 9.90326 1.87062 9.83726 1.05762C9.00742 1.13669 8.23503 1.51613 7.66526 2.12462C7.39516 2.41267 7.18703 2.75307 7.05372 3.12477C6.92042 3.49647 6.86479 3.89156 6.89026 4.28562C7.30531 4.29217 7.71673 4.20753 8.09549 4.03768C8.47425 3.86783 8.8111 3.6169 9.08226 3.30262H9.08326Z" fill="white"/>
</svg>
