<svg width="18" height="37" viewBox="0 0 18 37" fill="none" xmlns="http://www.w3.org/2000/svg">
<path d="M11.6613 1C10.3453 6.923 8.73328 23.246 13.5103 19.33C14.6323 18.41 17.4173 14.14 16.0023 12.662C14.2083 10.786 10.9853 11.963 9.35828 13.708C7.02728 16.208 5.55528 20.951 5.42428 24.23C5.32028 26.85 5.72928 29.167 6.02928 31.713C6.17828 32.973 6.84928 34.505 6.73728 35.766C6.59528 37.369 9.00428 32.668 9.18928 31.617C9.22528 31.411 7.81728 34.957 7.98428 36.202C8.06728 36.822 6.00828 35.374 5.80428 35.246C4.35828 34.341 2.71928 33.748 1.11328 33.186" stroke="url(#paint0_linear_1_4672)" stroke-width="1.21" stroke-linecap="round"/>
<defs>
<linearGradient id="paint0_linear_1_4672" x1="1.18128" y1="12.239" x2="16.8173" y2="26.82" gradientUnits="userSpaceOnUse">
<stop stop-color="#5645F5"/>
<stop offset="1" stop-color="#F4B746" stop-opacity="0.64"/>
</linearGradient>
</defs>
</svg>
