<svg width="43" height="42" viewBox="0 0 43 42" fill="none" xmlns="http://www.w3.org/2000/svg">
<rect x="0.830078" y="0.5" width="41" height="41" rx="20.5" stroke="#6455F6"/>
<path d="M22.8301 30.888C27.6411 30.164 31.3301 26.013 31.3301 21C31.3301 15.477 26.8531 11 21.3301 11C15.8071 11 11.3301 15.477 11.3301 21C11.3301 26.013 15.0191 30.165 19.8301 30.888V24H18.3301C17.9323 24 17.5507 23.842 17.2694 23.5607C16.9881 23.2794 16.8301 22.8978 16.8301 22.5C16.8301 22.1022 16.9881 21.7206 17.2694 21.4393C17.5507 21.158 17.9323 21 18.3301 21H19.8301V19C19.8301 18.0717 20.1988 17.1815 20.8552 16.5251C21.5116 15.8687 22.4018 15.5 23.3301 15.5H23.8301C24.2279 15.5 24.6094 15.658 24.8907 15.9393C25.172 16.2206 25.3301 16.6022 25.3301 17C25.3301 17.3978 25.172 17.7794 24.8907 18.0607C24.6094 18.342 24.2279 18.5 23.8301 18.5H23.3301C23.1975 18.5 23.0703 18.5527 22.9765 18.6464C22.8828 18.7402 22.8301 18.8674 22.8301 19V21H24.3301C24.7279 21 25.1094 21.158 25.3907 21.4393C25.672 21.7206 25.8301 22.1022 25.8301 22.5C25.8301 22.8978 25.672 23.2794 25.3907 23.5607C25.1094 23.842 24.7279 24 24.3301 24H22.8301V30.888Z" fill="#6455F6"/>
</svg>
