<svg width="43" height="42" viewBox="0 0 43 42" fill="none" xmlns="http://www.w3.org/2000/svg">
<rect x="0.830078" y="0.5" width="41" height="41" rx="20.5" stroke="#6455F6"/>
<path d="M25.3301 12C26.6562 12 27.9279 12.5268 28.8656 13.4645C29.8033 14.4021 30.3301 15.6739 30.3301 17V25C30.3301 26.3261 29.8033 27.5979 28.8656 28.5355C27.9279 29.4732 26.6562 30 25.3301 30H17.3301C16.004 30 14.7322 29.4732 13.7945 28.5355C12.8569 27.5979 12.3301 26.3261 12.3301 25V17C12.3301 15.6739 12.8569 14.4021 13.7945 13.4645C14.7322 12.5268 16.004 12 17.3301 12H25.3301ZM21.3301 17C20.2692 17 19.2518 17.4214 18.5017 18.1716C17.7515 18.9217 17.3301 19.9391 17.3301 21C17.3301 22.0609 17.7515 23.0783 18.5017 23.8284C19.2518 24.5786 20.2692 25 21.3301 25C22.3909 25 23.4084 24.5786 24.1585 23.8284C24.9087 23.0783 25.3301 22.0609 25.3301 21C25.3301 19.9391 24.9087 18.9217 24.1585 18.1716C23.4084 17.4214 22.3909 17 21.3301 17ZM21.3301 19C21.8605 19 22.3692 19.2107 22.7443 19.5858C23.1194 19.9609 23.3301 20.4696 23.3301 21C23.3301 21.5304 23.1194 22.0391 22.7443 22.4142C22.3692 22.7893 21.8605 23 21.3301 23C20.7996 23 20.2909 22.7893 19.9159 22.4142C19.5408 22.0391 19.3301 21.5304 19.3301 21C19.3301 20.4696 19.5408 19.9609 19.9159 19.5858C20.2909 19.2107 20.7996 19 21.3301 19ZM25.8301 15.5C25.5649 15.5 25.3105 15.6054 25.123 15.7929C24.9354 15.9804 24.8301 16.2348 24.8301 16.5C24.8301 16.7652 24.9354 17.0196 25.123 17.2071C25.3105 17.3946 25.5649 17.5 25.8301 17.5C26.0953 17.5 26.3496 17.3946 26.5372 17.2071C26.7247 17.0196 26.8301 16.7652 26.8301 16.5C26.8301 16.2348 26.7247 15.9804 26.5372 15.7929C26.3496 15.6054 26.0953 15.5 25.8301 15.5Z" fill="#6455F6"/>
</svg>
