<svg width="43" height="42" viewBox="0 0 43 42" fill="none" xmlns="http://www.w3.org/2000/svg">
<rect x="0.830078" y="0.5" width="41" height="41" rx="20.5" stroke="#6455F6"/>
<path d="M30.3301 13.324V28.677C30.3301 29.0279 30.1907 29.3644 29.9426 29.6125C29.6945 29.8606 29.358 30 29.0071 30H13.6541C13.4803 30.0001 13.3081 29.966 13.1475 29.8996C12.9869 29.8332 12.8409 29.7357 12.7179 29.6129C12.595 29.49 12.4974 29.3441 12.4309 29.1835C12.3643 29.0229 12.3301 28.8508 12.3301 28.677V13.324C12.3301 12.9729 12.4696 12.6361 12.7179 12.3878C12.9662 12.1395 13.3029 12 13.6541 12H29.0071C29.1809 12 29.353 12.0343 29.5136 12.1008C29.6742 12.1674 29.8201 12.2649 29.9429 12.3879C30.0658 12.5108 30.1632 12.6568 30.2297 12.8174C30.2961 12.978 30.3302 13.1502 30.3301 13.324ZM17.6241 18.882H14.9771V27.352H17.6241V18.882ZM17.8621 15.971C17.8635 15.7707 17.8255 15.5721 17.7502 15.3866C17.6749 15.201 17.5638 15.0321 17.4232 14.8894C17.2826 14.7468 17.1153 14.6333 16.9308 14.5553C16.7464 14.4773 16.5483 14.4364 16.3481 14.435H16.3011C15.894 14.435 15.5035 14.5967 15.2157 14.8846C14.9278 15.1725 14.7661 15.5629 14.7661 15.97C14.7661 16.3771 14.9278 16.7675 15.2157 17.0554C15.5035 17.3433 15.894 17.505 16.3011 17.505C16.7052 17.5147 17.0967 17.3635 17.3894 17.0846C17.6821 16.8058 17.8521 16.4221 17.8621 16.018V15.971ZM27.6821 22.207C27.6821 19.661 26.0621 18.671 24.4531 18.671C23.9262 18.6447 23.4017 18.757 22.9318 18.9967C22.4619 19.2364 22.0631 19.5951 21.7751 20.037H21.7011V18.882H19.2121V27.352H21.8591V22.848C21.8205 22.3863 21.9658 21.928 22.2633 21.573C22.5609 21.2179 22.9867 20.9947 23.4481 20.952H23.5481C24.3901 20.952 25.0151 21.482 25.0151 22.816V27.353H27.6621L27.6821 22.207Z" fill="#6455F6"/>
</svg>
