<svg width="26" height="25" viewBox="0 0 26 25" fill="none" xmlns="http://www.w3.org/2000/svg">
<path fill-rule="evenodd" clip-rule="evenodd" d="M12.085 12.2995L12.087 12.6535C12.099 14.0585 12.183 15.3115 12.329 16.1055C12.329 16.1195 12.489 16.9075 12.59 17.1695C12.75 17.5495 13.037 17.8695 13.399 18.0745C13.6808 18.2184 13.9926 18.2935 14.309 18.2935C14.558 18.2815 14.969 18.1565 15.263 18.0505L15.507 17.9575C17.124 17.3155 20.214 15.2175 21.398 13.9335L21.485 13.8435L21.875 13.4235C22.12 13.1015 22.25 12.7085 22.25 12.2855C22.25 11.9065 22.134 11.5275 21.903 11.2215C21.833 11.1215 21.723 10.9945 21.623 10.8875L21.244 10.4905C19.939 9.16846 17.115 7.31546 15.651 6.70046C15.651 6.68746 14.741 6.30746 14.308 6.29346H14.251C13.586 6.29346 12.965 6.67246 12.648 7.28446C12.561 7.45246 12.478 7.78046 12.415 8.06846L12.301 8.61146C12.171 9.48646 12.085 10.8285 12.085 12.2995ZM5.75302 10.7745C4.92302 10.7745 4.25002 11.4545 4.25002 12.2925C4.24897 12.4908 4.28702 12.6875 4.36199 12.8712C4.43697 13.0548 4.5474 13.2219 4.68698 13.3629C4.82656 13.5039 4.99255 13.6159 5.17547 13.6927C5.35838 13.7695 5.55464 13.8095 5.75302 13.8105L9.45302 13.4835C10.103 13.4835 10.632 12.9515 10.632 12.2935C10.632 11.6355 10.104 11.1025 9.45202 11.1025L5.75302 10.7745Z" fill="white"/>
</svg>
