<svg width="18" height="17" viewBox="0 0 18 17" fill="none" xmlns="http://www.w3.org/2000/svg">
<path d="M10.6722 2.57102L11.3122 1.41702C11.3218 1.40218 11.3283 1.38553 11.3312 1.36808C11.3341 1.35064 11.3334 1.33278 11.3292 1.31562C11.3249 1.29845 11.3171 1.28235 11.3064 1.26831C11.2956 1.25427 11.2821 1.2426 11.2666 1.23401C11.2512 1.22542 11.2341 1.2201 11.2165 1.21838C11.1989 1.21667 11.1811 1.21859 11.1643 1.22403C11.1475 1.22947 11.132 1.23831 11.1187 1.25001C11.1054 1.2617 11.0947 1.276 11.0872 1.29202L10.4402 2.45902C9.88817 2.21695 9.29195 2.09196 8.68919 2.09196C8.08642 2.09196 7.49021 2.21695 6.93819 2.45902L6.29119 1.29202C6.27461 1.26205 6.24681 1.23989 6.2139 1.23042C6.18098 1.22095 6.14566 1.22494 6.11569 1.24152C6.08572 1.25809 6.06356 1.2859 6.05409 1.31881C6.04462 1.35172 6.04861 1.38705 6.06519 1.41702L6.70519 2.57102C6.0962 2.87117 5.58162 3.33323 5.21789 3.90652C4.85416 4.47981 4.65533 5.14219 4.64319 5.82102H12.7352C12.7227 5.14213 12.5237 4.47977 12.1598 3.90651C11.7959 3.33325 11.2812 2.87121 10.6722 2.57102ZM6.82219 4.34102C6.73254 4.34102 6.64657 4.30541 6.58319 4.24202C6.5198 4.17863 6.48419 4.09266 6.48419 4.00302C6.48419 3.91338 6.5198 3.8274 6.58319 3.76402C6.64657 3.70063 6.73254 3.66502 6.82219 3.66502C6.91183 3.66502 6.9978 3.70063 7.06119 3.76402C7.12458 3.8274 7.16019 3.91338 7.16019 4.00302C7.16019 4.09266 7.12458 4.17863 7.06119 4.24202C6.9978 4.30541 6.91183 4.34102 6.82219 4.34102ZM10.5562 4.34102C10.4665 4.34102 10.3806 4.30541 10.3172 4.24202C10.2538 4.17863 10.2182 4.09266 10.2182 4.00302C10.2182 3.91338 10.2538 3.8274 10.3172 3.76402C10.3806 3.70063 10.4665 3.66502 10.5562 3.66502C10.6458 3.66502 10.7318 3.70063 10.7952 3.76402C10.8586 3.8274 10.8942 3.91338 10.8942 4.00302C10.8942 4.09266 10.8586 4.17863 10.7952 4.24202C10.7318 4.30541 10.6458 4.34102 10.5562 4.34102ZM4.64319 12.006C4.64319 12.2654 4.74623 12.5142 4.92964 12.6976C5.11305 12.881 5.36181 12.984 5.62119 12.984H6.27119V14.984C6.26715 15.1056 6.28761 15.2267 6.33135 15.3403C6.37508 15.4538 6.44121 15.5573 6.52578 15.6447C6.61036 15.7322 6.71166 15.8017 6.82365 15.8492C6.93564 15.8967 7.05604 15.9211 7.17769 15.9211C7.29933 15.9211 7.41973 15.8967 7.53173 15.8492C7.64372 15.8017 7.74502 15.7322 7.82959 15.6447C7.91417 15.5573 7.98029 15.4538 8.02403 15.3403C8.06777 15.2267 8.08823 15.1056 8.08419 14.984V12.984H9.29419V14.984C9.29015 15.1056 9.31061 15.2267 9.35435 15.3403C9.39808 15.4538 9.46421 15.5573 9.54878 15.6447C9.63336 15.7322 9.73466 15.8017 9.84665 15.8492C9.95864 15.8967 10.079 15.9211 10.2007 15.9211C10.3223 15.9211 10.4427 15.8967 10.5547 15.8492C10.6667 15.8017 10.768 15.7322 10.8526 15.6447C10.9372 15.5573 11.0033 15.4538 11.047 15.3403C11.0908 15.2267 11.1112 15.1056 11.1072 14.984V12.984H11.7572C12.0166 12.984 12.2653 12.881 12.4487 12.6976C12.6321 12.5142 12.7352 12.2654 12.7352 12.006V6.14202H4.64319V12.006ZM3.39919 5.98602C3.15872 5.98628 2.92817 6.08193 2.75813 6.25197C2.5881 6.422 2.49245 6.65255 2.49219 6.89302V10.673C2.49219 10.7921 2.51565 10.9101 2.56123 11.0201C2.60681 11.1302 2.67362 11.2301 2.75784 11.3144C2.84206 11.3986 2.94205 11.4654 3.05209 11.511C3.16214 11.5566 3.28008 11.58 3.39919 11.58C3.5183 11.58 3.63624 11.5566 3.74628 11.511C3.85632 11.4654 3.95631 11.3986 4.04053 11.3144C4.12476 11.2301 4.19157 11.1302 4.23715 11.0201C4.28273 10.9101 4.30619 10.7921 4.30619 10.673V6.89302C4.30592 6.65255 4.21028 6.422 4.04024 6.25197C3.8702 6.08193 3.63966 5.98628 3.39919 5.98602ZM13.9802 5.98602C13.7397 5.98628 13.5092 6.08193 13.3391 6.25197C13.1691 6.422 13.0735 6.65255 13.0732 6.89302V10.673C13.0674 10.7957 13.0866 10.9183 13.1296 11.0334C13.1726 11.1484 13.2385 11.2536 13.3232 11.3424C13.408 11.4313 13.51 11.502 13.6229 11.5504C13.7358 11.5987 13.8574 11.6236 13.9802 11.6236C14.103 11.6236 14.2246 11.5987 14.3375 11.5504C14.4504 11.502 14.5523 11.4313 14.6371 11.3424C14.7219 11.2536 14.7878 11.1484 14.8308 11.0334C14.8738 10.9183 14.893 10.7957 14.8872 10.673V6.89302C14.8869 6.65255 14.7913 6.422 14.6212 6.25197C14.4512 6.08193 14.2207 5.98628 13.9802 5.98602Z" fill="white"/>
</svg>
