<svg width="24" height="23" viewBox="0 0 24 23" fill="none" xmlns="http://www.w3.org/2000/svg">
<path fill-rule="evenodd" clip-rule="evenodd" d="M9.6092 4.53167C9.54792 4.17111 9.50188 3.80812 9.4712 3.44368C9.4262 2.90167 9.4542 2.35567 9.4382 1.81367C9.4312 1.58367 9.4042 0.983675 9.4152 0.897675C9.5152 0.145675 10.1222 0.030675 10.2992 0.010675C10.3852 -0.00232505 11.2672 -0.100325 11.4572 0.876675C11.6886 2.054 11.7643 3.25663 11.6822 4.45367C11.8752 5.45667 12.2042 6.45367 12.6392 7.35767C14.3702 10.9517 17.6692 11.3007 21.2412 11.2677C21.5101 11.2574 21.7722 11.3534 21.9709 11.5348C22.1696 11.7163 22.2889 11.9687 22.3029 12.2374C22.317 12.5061 22.2247 12.7696 22.046 12.9708C21.8674 13.172 21.6167 13.2948 21.3482 13.3127C19.3512 13.5067 15.8082 15.1077 14.5822 16.7757C14.3262 17.1247 14.1772 17.9667 13.9802 18.7927C13.7052 19.9377 13.3772 21.0717 13.0102 21.5477C12.9562 21.6217 12.2872 22.3777 12.0872 22.4887C11.6072 22.7517 11.2232 22.5987 11.0052 22.4597C10.7872 22.3197 10.5402 22.0447 10.4422 21.5897C10.3382 21.1127 10.4262 20.1357 10.4102 19.9257C10.3512 19.1657 10.2002 17.6757 9.8902 16.3937C9.7222 15.7037 9.5442 15.0667 9.2492 14.7507C8.1572 13.5807 6.4122 13.7527 4.9422 13.9457C4.7722 13.9657 4.6042 13.9907 4.4362 14.0117C3.81307 14.1946 3.1754 14.3237 2.5302 14.3977C1.5162 14.5167 1.3502 13.5847 1.3402 13.5227C1.3222 13.3867 1.2512 12.6887 2.0162 12.4097C2.0992 12.3807 2.7142 12.2457 2.9512 12.1917C3.2812 12.1177 3.6152 12.0607 3.9512 12.0077C7.4132 10.9307 9.2932 7.90767 9.6092 4.53167ZM10.7992 8.26567C12.1062 10.9677 14.0892 12.2737 16.4392 12.8657C14.9722 13.6337 13.6362 14.5947 12.9292 15.5597C12.6602 15.9257 12.4142 16.6597 12.1912 17.4857C12.0712 16.7177 11.9082 15.9007 11.6942 15.2027C11.4492 14.4057 11.1202 13.7447 10.7542 13.3507C10.0442 12.5907 9.1542 12.1677 8.1982 11.9577C9.3432 10.9437 10.2112 9.67767 10.7982 8.26567H10.7992Z" fill="#5645F5"/>
</svg>
