<svg width="213" height="61" viewBox="0 0 213 61" fill="none" xmlns="http://www.w3.org/2000/svg">
<path fill-rule="evenodd" clip-rule="evenodd" d="M131.538 22.3865C133.331 22.5515 135.129 22.7315 136.635 22.9705C163.51 27.0885 191.312 38.8245 211.342 57.2275C212.063 57.9015 212.163 59.0215 211.488 59.7545C211.333 59.9272 211.145 60.0668 210.934 60.1651C210.724 60.2635 210.496 60.3184 210.264 60.3267C210.032 60.335 209.8 60.2965 209.583 60.2135C209.366 60.1305 209.168 60.0046 209.001 59.8435C189.323 41.9675 162.267 30.5435 136.062 26.5335C135.221 26.3905 134.237 26.2835 133.25 26.1715C133.872 28.2795 133.806 30.2305 133.341 31.9545C132.566 34.5435 130.719 36.7895 128.231 38.5775C124.741 41.0655 120.126 42.6385 115.614 43.2105C112.141 43.6155 108.743 43.3695 106.339 42.4045C104.329 41.6525 102.931 40.4245 102.194 38.8575C101.426 37.2045 101.418 35.0565 102.794 32.3875C105.038 27.8085 109.387 25.0875 114.668 23.6115C118.524 22.5395 122.803 22.1885 126.903 22.2045C126.071 21.2325 125.068 20.2225 123.891 19.1685C114.71 11.3695 97.9812 7.00846 79.4832 5.10546C51.3372 2.23746 19.0402 5.17946 2.66321 11.1435C1.83021 11.4465 0.718212 10.9945 0.373212 10.0635C0.0292119 9.13346 0.583212 8.07346 1.41621 7.76946C18.2102 1.65446 51.0972 -1.39353 79.8872 1.51447C99.2082 3.51447 116.709 8.25647 126.197 16.4575C128.54 18.5365 130.364 20.4885 131.538 22.3865ZM129.357 25.8595C130.196 27.7045 130.346 29.3865 129.961 30.9015C129.393 32.7735 127.934 34.3645 126.197 35.6315C123.21 37.7745 119.142 39.1255 115.231 39.6205C112.515 39.9425 109.807 39.8565 107.824 39.1765C106.733 38.7815 105.896 38.2235 105.431 37.3935C105.099 36.4945 105.316 35.3745 105.915 34.0135C107.848 30.2945 111.492 28.2265 115.634 27.0765C119.919 25.8895 125.015 25.6155 129.357 25.8595Z" fill="#8645F5"/>
<path fill-rule="evenodd" clip-rule="evenodd" d="M208.979 59.6686C202.151 51.8486 197.51 41.4256 195.198 31.3356C194.995 30.3606 195.584 29.3966 196.458 29.2056C197.47 28.9616 198.476 29.5496 198.678 30.5236C200.933 40.0316 205.217 49.9195 211.721 57.2905C212.32 58.0575 212.264 59.1866 211.556 59.8266C210.709 60.5166 209.577 60.4366 208.979 59.6686Z" fill="#8645F5"/>
<path fill-rule="evenodd" clip-rule="evenodd" d="M209.207 60.1333C200.593 55.1473 189.392 55.9473 179.97 58.1483C179.096 58.3393 178.091 57.7503 177.888 56.7753C177.787 56.301 177.878 55.8062 178.14 55.3982C178.402 54.9903 178.814 54.7022 179.288 54.5963C189.441 52.2423 201.639 51.5883 211.048 57.0213C211.869 57.5373 212.123 58.6513 211.648 59.4973C211.174 60.3453 210.027 60.6473 209.207 60.1333Z" fill="#8645F5"/>
</svg>
