<svg width="149" height="75" viewBox="0 0 149 75" fill="none" xmlns="http://www.w3.org/2000/svg">
<path d="M4.28844 31.6995C8.17144 26.8665 14.4614 21.1365 21.8044 16.1985C29.1494 11.2585 37.5114 7.13248 45.5314 5.47148C50.7264 4.39548 55.7514 4.37447 60.2344 5.86347C64.7054 7.34947 68.6714 10.3505 71.7424 15.3865C73.4364 18.1605 73.8384 20.9205 73.3184 23.5795C71.5731 23.1999 69.8177 22.8674 68.0544 22.5825C65.3854 22.1535 60.5874 22.0335 55.3144 22.4855C50.0384 22.9365 44.2344 23.9645 39.5684 25.8555C36.2234 27.2135 33.4164 29.0315 31.7004 31.4005C29.9664 33.7955 29.3764 36.7125 30.4044 40.1605C31.5714 44.0725 34.7994 46.2215 39.0364 46.8915C44.8294 47.8115 52.7334 45.9405 59.7604 42.3345C65.6164 39.3305 70.9304 35.0955 73.9854 30.2565C74.5663 29.3389 75.0726 28.3761 75.4994 27.3775C101.832 33.8625 129.495 51.4175 144.968 72.8885L144.969 72.8905C145.224 73.2203 145.598 73.4381 146.01 73.498C146.423 73.5579 146.842 73.4551 147.18 73.2114C147.519 72.9677 147.749 72.6021 147.823 72.1918C147.896 71.7815 147.808 71.3587 147.575 71.0125C131.703 48.9925 103.434 31.0165 76.4654 24.3115C77.1774 20.8635 76.6544 17.2715 74.4844 13.7135C71.0184 8.03147 66.5184 4.57147 61.4134 2.84347C56.3184 1.11847 50.6584 1.13147 44.8794 2.32747C36.4424 4.07547 27.6994 8.39248 20.0644 13.5205C12.4274 18.6495 5.86244 24.6125 1.78444 29.6875C1.52725 30.0203 1.4109 30.4407 1.46037 30.8584C1.50985 31.2761 1.72122 31.6577 2.04904 31.9212C2.37686 32.1847 2.79498 32.3091 3.21354 32.2677C3.6321 32.2262 4.01868 32.0222 4.28844 31.6995ZM40.7754 28.8325C45.1194 27.0715 50.5714 26.0985 55.5774 25.6695C60.5854 25.2415 65.0954 25.3595 67.5444 25.7525C69.1194 26.0055 70.7074 26.3025 72.3044 26.6435C71.6014 28.1615 70.6174 29.6345 69.4184 31.0395C65.1684 36.0215 58.3264 40.0885 51.6334 42.2505C47.2234 43.6755 42.9334 44.2605 39.5394 43.7225C36.4624 43.2325 34.2544 41.8335 33.4804 39.2435C32.7204 36.6905 33.2304 34.6535 34.5524 32.9785C35.8954 31.2745 38.1024 29.9155 40.7754 28.8325Z" fill="#8645F5"/>
<path d="M44.8794 2.32747C50.6584 1.13147 56.3184 1.11847 61.4134 2.84347C66.5184 4.57147 71.0184 8.03147 74.4844 13.7135C76.6544 17.2715 77.1774 20.8635 76.4654 24.3115C103.434 31.0165 131.703 48.9925 147.575 71.0125C147.808 71.3587 147.896 71.7815 147.823 72.1918C147.749 72.6021 147.519 72.9677 147.18 73.2114C146.842 73.4551 146.423 73.5579 146.01 73.498C145.597 73.4381 145.224 73.2203 144.969 72.8905L144.968 72.8885C129.495 51.4175 101.832 33.8625 75.4994 27.3775C75.0726 28.3761 74.5663 29.3389 73.9854 30.2565C70.9304 35.0955 65.6164 39.3305 59.7604 42.3345C52.7334 45.9405 44.8294 47.8115 39.0364 46.8915C34.7994 46.2215 31.5714 44.0725 30.4044 40.1605C29.3764 36.7125 29.9664 33.7955 31.7004 31.4005C33.4164 29.0315 36.2234 27.2135 39.5684 25.8555C44.2344 23.9645 50.0384 22.9365 55.3144 22.4855C60.5874 22.0335 65.3854 22.1535 68.0544 22.5825C69.8177 22.8674 71.573 23.1999 73.3184 23.5795C73.8384 20.9205 73.4364 18.1605 71.7424 15.3865C68.6714 10.3505 64.7054 7.34947 60.2344 5.86347C55.7514 4.37447 50.7264 4.39548 45.5314 5.47148C37.5114 7.13248 29.1494 11.2585 21.8044 16.1985C14.4614 21.1365 8.17144 26.8665 4.28844 31.6995C4.01868 32.0222 3.6321 32.2262 3.21354 32.2677C2.79498 32.3091 2.37686 32.1847 2.04904 31.9212C1.72122 31.6577 1.50985 31.2761 1.46037 30.8584C1.4109 30.4407 1.52725 30.0203 1.78444 29.6875C5.86244 24.6125 12.4274 18.6495 20.0644 13.5205C27.6994 8.39248 36.4424 4.07547 44.8794 2.32747ZM44.8794 2.32747L44.9804 2.81747M40.7754 28.8325C45.1194 27.0715 50.5714 26.0985 55.5774 25.6695C60.5854 25.2415 65.0954 25.3595 67.5444 25.7525C69.1194 26.0055 70.7074 26.3025 72.3044 26.6435C71.6014 28.1615 70.6174 29.6345 69.4184 31.0395C65.1684 36.0215 58.3264 40.0885 51.6334 42.2505C47.2234 43.6755 42.9334 44.2605 39.5394 43.7225C36.4624 43.2325 34.2544 41.8335 33.4804 39.2435C32.7204 36.6905 33.2304 34.6535 34.5524 32.9785C35.8954 31.2745 38.1024 29.9155 40.7754 28.8325Z" stroke="#5645F5"/>
<path d="M105.343 63.4177C118.343 62.2007 133.817 66.7667 145.397 73.0867C145.771 73.2909 146.211 73.3383 146.619 73.2185C147.028 73.0987 147.372 72.8214 147.576 72.4477C147.781 72.074 147.828 71.6345 147.708 71.2259C147.588 70.8172 147.311 70.4729 146.937 70.2687C134.882 63.6867 118.711 58.9427 105.046 60.2217C104.634 60.2755 104.259 60.487 104 60.8117C103.74 61.1364 103.617 61.549 103.655 61.9628C103.694 62.3766 103.891 62.7593 104.206 63.0307C104.521 63.302 104.928 63.4407 105.343 63.4177Z" fill="#8645F5" stroke="#8645F5"/>
<path d="M131.803 37.8046C131.917 49.4366 136.745 64.1416 144.963 72.4186C145.587 73.0486 146.606 73.0496 147.234 72.4286L147.236 72.4266C147.537 72.1262 147.707 71.7183 147.708 71.2927C147.709 70.867 147.541 70.4584 147.241 70.1566C139.62 62.4816 135.12 48.6936 135.014 37.7756C135.012 37.5648 134.968 37.3564 134.886 37.1624C134.803 36.9683 134.683 36.7925 134.533 36.6448C134.382 36.4971 134.204 36.3805 134.009 36.3016C133.813 36.2227 133.604 36.1832 133.393 36.1851C133.182 36.1871 132.974 36.2306 132.78 36.3131C132.586 36.3956 132.41 36.5155 132.262 36.666C132.115 36.8164 131.998 36.9945 131.919 37.1901C131.84 37.3856 131.801 37.5938 131.803 37.8046Z" fill="#8645F5" stroke="#8645F5"/>
</svg>
