<svg width="43" height="42" viewBox="0 0 43 42" fill="none" xmlns="http://www.w3.org/2000/svg">
<rect x="0.830078" y="0.5" width="41" height="41" rx="20.5" stroke="#6455F6"/>
<path d="M13.9246 13.9839C14.1057 13.9629 14.289 13.9917 14.4549 14.0673C14.6207 14.1429 14.7628 14.2624 14.8656 14.4129C16.3416 16.5719 18.1136 17.4699 20.0806 17.6739C20.1766 16.8329 20.4036 16.0019 20.8306 15.2699C21.4566 14.1959 22.4746 13.4059 23.9286 13.1139C25.9386 12.7099 27.4686 13.4379 28.3556 14.3289L30.1476 13.9939C30.3351 13.9588 30.5288 13.978 30.7057 14.0494C30.8827 14.1207 31.0355 14.2412 31.1462 14.3966C31.2569 14.5519 31.3209 14.7357 31.3305 14.9263C31.3401 15.1168 31.2951 15.3061 31.2006 15.4719L29.4806 18.4939C29.6376 22.8549 28.4256 25.8989 25.8416 27.9959C24.4716 29.1079 22.5096 29.7389 20.3566 29.9339C18.1866 30.1299 15.7336 29.8929 13.2956 29.1809C13.0873 29.1201 12.9044 28.9933 12.7745 28.8194C12.6447 28.6456 12.5749 28.4343 12.5756 28.2173C12.5764 28.0003 12.6478 27.7894 12.7789 27.6166C12.9101 27.4437 13.0939 27.3181 13.3026 27.2589C14.5286 26.9099 15.4626 26.6089 16.3056 26.0819C15.1066 25.4459 14.2236 24.6139 13.5986 23.6659C12.7306 22.3479 12.4086 20.8779 12.3446 19.5529C12.2806 18.2279 12.4716 16.9999 12.6736 16.1149C12.7886 15.6099 12.9226 15.1039 13.1076 14.6199C13.1729 14.4493 13.2836 14.2998 13.4278 14.1877C13.572 14.0756 13.7432 14.0051 13.9246 13.9839Z" fill="#6455F6"/>
</svg>
